<svg id="visual" viewBox="0 0 900 600" width="900" height="600" xmlns="http://www.w3.org/2000/svg" xmlns:xlink="http://www.w3.org/1999/xlink" version="1.1"><rect x="0" y="0" width="900" height="600" fill="#001220"></rect><path d="M0 394L21.5 402.2C43 410.3 86 426.7 128.8 430C171.7 433.3 214.3 423.7 257.2 415.7C300 407.7 343 401.3 385.8 402.8C428.7 404.3 471.3 413.7 514.2 414.3C557 415 600 407 642.8 394.7C685.7 382.3 728.3 365.7 771.2 368.3C814 371 857 393 878.5 404L900 415L900 601L878.5 601C857 601 814 601 771.2 601C728.3 601 685.7 601 642.8 601C600 601 557 601 514.2 601C471.3 601 428.7 601 385.8 601C343 601 300 601 257.2 601C214.3 601 171.7 601 128.8 601C86 601 43 601 21.5 601L0 601Z" fill="#fa7268"></path><path d="M0 436L21.5 438.8C43 441.7 86 447.3 128.8 448C171.7 448.7 214.3 444.3 257.2 442.5C300 440.7 343 441.3 385.8 439C428.7 436.7 471.3 431.3 514.2 435.3C557 439.3 600 452.7 642.8 450.3C685.7 448 728.3 430 771.2 429.8C814 429.7 857 447.3 878.5 456.2L900 465L900 601L878.5 601C857 601 814 601 771.2 601C728.3 601 685.7 601 642.8 601C600 601 557 601 514.2 601C471.3 601 428.7 601 385.8 601C343 601 300 601 257.2 601C214.3 601 171.7 601 128.8 601C86 601 43 601 21.5 601L0 601Z" fill="#ef5f67"></path><path d="M0 493L21.5 485.5C43 478 86 463 128.8 455.8C171.7 448.7 214.3 449.3 257.2 450.2C300 451 343 452 385.8 460.7C428.7 469.3 471.3 485.7 514.2 488.2C557 490.7 600 479.3 642.8 475.2C685.7 471 728.3 474 771.2 472.5C814 471 857 465 878.5 462L900 459L900 601L878.5 601C857 601 814 601 771.2 601C728.3 601 685.7 601 642.8 601C600 601 557 601 514.2 601C471.3 601 428.7 601 385.8 601C343 601 300 601 257.2 601C214.3 601 171.7 601 128.8 601C86 601 43 601 21.5 601L0 601Z" fill="#e34c67"></path><path d="M0 503L21.5 499.5C43 496 86 489 128.8 490.3C171.7 491.7 214.3 501.3 257.2 504.7C300 508 343 505 385.8 501.5C428.7 498 471.3 494 514.2 491.3C557 488.7 600 487.3 642.8 496C685.7 504.7 728.3 523.3 771.2 522.7C814 522 857 502 878.5 492L900 482L900 601L878.5 601C857 601 814 601 771.2 601C728.3 601 685.7 601 642.8 601C600 601 557 601 514.2 601C471.3 601 428.7 601 385.8 601C343 601 300 601 257.2 601C214.3 601 171.7 601 128.8 601C86 601 43 601 21.5 601L0 601Z" fill="#d53867"></path><path d="M0 559L21.5 559.3C43 559.7 86 560.3 128.8 559.8C171.7 559.3 214.3 557.7 257.2 554.8C300 552 343 548 385.8 544.3C428.7 540.7 471.3 537.3 514.2 539.2C557 541 600 548 642.8 551.7C685.7 555.3 728.3 555.7 771.2 556.2C814 556.7 857 557.3 878.5 557.7L900 558L900 601L878.5 601C857 601 814 601 771.2 601C728.3 601 685.7 601 642.8 601C600 601 557 601 514.2 601C471.3 601 428.7 601 385.8 601C343 601 300 601 257.2 601C214.3 601 171.7 601 128.8 601C86 601 43 601 21.5 601L0 601Z" fill="#c62368"></path></svg>