<svg id="visual" viewBox="0 0 900 600" width="900" height="600" xmlns="http://www.w3.org/2000/svg" xmlns:xlink="http://www.w3.org/1999/xlink" version="1.1"><rect x="0" y="0" width="900" height="600" fill="#002233"></rect><path d="M0 425L13.7 436C27.3 447 54.7 469 82 475C109.3 481 136.7 471 163.8 449.8C191 428.7 218 396.3 245.2 400C272.3 403.7 299.7 443.3 327 447.5C354.3 451.7 381.7 420.3 409 397.8C436.3 375.3 463.7 361.7 491 359.3C518.3 357 545.7 366 573 390.8C600.3 415.7 627.7 456.3 654.8 464C682 471.7 709 446.3 736.2 418.7C763.3 391 790.7 361 818 352.5C845.3 344 872.7 357 886.3 363.5L900 370L900 601L886.3 601C872.7 601 845.3 601 818 601C790.7 601 763.3 601 736.2 601C709 601 682 601 654.8 601C627.7 601 600.3 601 573 601C545.7 601 518.3 601 491 601C463.7 601 436.3 601 409 601C381.7 601 354.3 601 327 601C299.7 601 272.3 601 245.2 601C218 601 191 601 163.8 601C136.7 601 109.3 601 82 601C54.7 601 27.3 601 13.7 601L0 601Z" fill="#0066FF" stroke-linecap="round" stroke-linejoin="miter"></path></svg>